<svg xmlns="http://www.w3.org/2000/svg" viewBox="0 0 512 512" role="img" aria-label="Multilingual logo">
  <defs>
    <linearGradient id="bg" x1="0" y1="0" x2="1" y2="1">
      <stop offset="0%" stop-color="#03020d" />
      <stop offset="100%" stop-color="#0d0c22" />
    </linearGradient>
    <linearGradient id="accent" x1="0" y1="0" x2="1" y2="1">
      <stop offset="0%" stop-color="#7c3aed" />
      <stop offset="100%" stop-color="#06b6d4" />
    </linearGradient>
    <filter id="softGlow" x="-20%" y="-20%" width="140%" height="140%">
      <feGaussianBlur stdDeviation="5" result="blur" />
      <feMerge>
        <feMergeNode in="blur" />
        <feMergeNode in="SourceGraphic" />
      </feMerge>
    </filter>
  </defs>

  <rect x="20" y="20" width="472" height="472" rx="120" fill="url(#bg)" />
  <rect x="20" y="20" width="472" height="472" rx="120" fill="none" stroke="url(#accent)" stroke-width="8" />

  <g filter="url(#softGlow)">
    <path transform="translate(-30 -7)"
      d="M138 356V170h44v36c13-24 34-36 63-36 28 0 48 12 60 35 14-23 36-35 66-35 44 0 71 30 71 82v104h-45V258c0-31-13-47-38-47-15 0-27 6-35 18-8 11-12 25-12 42v85h-45V258c0-31-13-47-38-47-15 0-27 6-35 18-8 11-12 25-12 42v85h-44z"
      fill="url(#accent)" />
  </g>
</svg>
